{"accessors" : [{"bufferView" : 0, "byteOffset" : 0, "componentType" : 5125, "count" : 108714, "type" : "SCALAR", "max" : [107994], "min" : [0]}, {"bufferView" : 1, "byteOffset" : 0, "componentType" : 5126, "count" : 107995, "type" : "VEC3", "max" : [5.718428611755371, 8.523332595825195, 2.2485005855560303], "min" : [-7.967550754547119, -7.9642133712768555, -0.07960242033004761], "name" : "POSITION"}, {"bufferView" : 1, "byteOffset" : 12, "componentType" : 5126, "count" : 107995, "type" : "VEC3", "max" : [0.9999994039535522, 1, 1.0000042915344238], "min" : [-0.999993622303009, -0.9999999403953552, -1.0000042915344238], "name" : "NORMAL"}], "asset" : {"generator" : "Aspose.3D 25.11.0", "version" : "2.0"}, "buffers" : [{"uri" : "data:application/octet-stream;base64,", "byteLength" : 3026744}], "bufferViews" : [{"buffer" : 0, "byteOffset" : 0, "byteLength" : 434856, "target" : 34963}, {"buffer" : 0, "byteOffset" : 434860, "byteLength" : 2591880, "byteStride" : 24, "target" : 34962}], "meshes" : [{"primitives" : [{"attributes" : {"POSITION" : 1, "NORMAL" : 2}, "indices" : 0, "mode" : 4}], "name" : ""}], "nodes" : [{"mesh" : 0, "name" : ""}], "scene" : 0, "scenes" : [{"nodes" : [0]}]}